<?xml version="1.0" standalone="no"?>
<!DOCTYPE svg PUBLIC "-//W3C//DTD SVG 20010904//EN"
 "http://www.w3.org/TR/2001/REC-SVG-20010904/DTD/svg10.dtd">
<svg version="1.0" xmlns="http://www.w3.org/2000/svg"
 width="980.000000pt" height="981.000000pt" viewBox="0 0 980.000000 981.000000"
 preserveAspectRatio="xMidYMid meet">

<g transform="translate(0.000000,981.000000) scale(0.100000,-0.100000)"
fill="#c70101" stroke="none">
<path d="M4600 9793 c-459 -31 -850 -105 -1243 -235 -570 -188 -1123 -498
-1612 -902 -160 -132 -494 -469 -626 -631 -449 -551 -768 -1163 -949 -1821
-190 -694 -221 -1509 -84 -2234 145 -772 488 -1510 1000 -2151 622 -778 1531
-1375 2501 -1643 737 -204 1572 -229 2338 -69 745 154 1437 485 2056 981 508
406 926 913 1249 1511 486 902 666 1947 519 3016 -120 882 -501 1728 -1100
2450 -103 124 -453 476 -574 576 -829 691 -1778 1076 -2823 1148 -138 10 -536
12 -652 4z m475 -2242 c66 -32 146 -110 1561 -1525 1713 -1713 1559 -1541
1559 -1741 0 -177 11 -161 -434 -606 -343 -344 -382 -379 -446 -410 -64 -31
-77 -34 -165 -34 -75 1 -108 5 -155 24 -57 22 -106 70 -1077 1040 l-1018 1016
-1017 -1016 c-972 -970 -1021 -1018 -1078 -1040 -48 -19 -79 -23 -155 -23 -87
0 -101 2 -165 33 -64 31 -101 64 -446 410 -447 447 -434 429 -434 611 0 195
-148 30 1544 1721 812 812 1493 1488 1513 1504 21 15 64 38 95 51 50 21 71 24
153 22 85 -3 103 -7 165 -37z"/>
</g>
</svg>
