<?xml version="1.0" standalone="no"?>
<!DOCTYPE svg PUBLIC "-//W3C//DTD SVG 20010904//EN"
 "http://www.w3.org/TR/2001/REC-SVG-20010904/DTD/svg10.dtd">
<svg version="1.0" xmlns="http://www.w3.org/2000/svg"
 width="980.000000pt" height="981.000000pt" viewBox="0 0 980.000000 981.000000"
 preserveAspectRatio="xMidYMid meet">

<g transform="translate(0.000000,981.000000) scale(0.100000,-0.100000)"
fill="#c70101" stroke="none">
<path d="M4675 9803 c-331 -20 -543 -46 -800 -100 -744 -154 -1437 -485 -2056
-981 -508 -406 -926 -913 -1249 -1511 -486 -902 -666 -1947 -519 -3016 120
-882 501 -1728 1100 -2450 103 -124 453 -476 574 -576 745 -621 1603 -1002
2518 -1119 430 -54 933 -52 1352 6 901 125 1732 496 2460 1098 160 132 494
469 626 631 449 551 768 1163 949 1821 190 694 221 1509 84 2234 -145 772
-488 1510 -1000 2151 -677 847 -1695 1478 -2747 1704 -410 88 -922 131 -1292
108z m-1870 -3253 c58 -21 97 -60 1078 -1039 l1017 -1016 1018 1016 c971 970
1020 1018 1077 1040 48 19 79 23 155 23 87 0 101 -2 165 -33 64 -31 101 -64
446 -410 447 -447 434 -429 434 -611 0 -195 150 -28 -1559 -1736 -1710 -1710
-1542 -1559 -1736 -1559 -194 0 -27 -151 -1736 1559 -1713 1713 -1559 1541
-1559 1741 0 176 -10 162 429 601 375 376 420 414 515 441 65 18 183 10 256
-17z"/>
</g>
</svg>
