<?xml version="1.0" standalone="no"?>
<!DOCTYPE svg PUBLIC "-//W3C//DTD SVG 20010904//EN"
 "http://www.w3.org/TR/2001/REC-SVG-20010904/DTD/svg10.dtd">
<svg version="1.0" xmlns="http://www.w3.org/2000/svg"
 width="512.000000pt" height="512.000000pt" viewBox="0 0 512.000000 512.000000"
 preserveAspectRatio="xMidYMid meet">

<g transform="translate(0.000000,512.000000) scale(0.100000,-0.100000)"
fill="#FFFFFF" stroke="none">
<path d="M2431 5109 c-128 -11 -305 -44 -434 -80 -635 -175 -1134 -636 -1331
-1229 -66 -199 -80 -289 -80 -525 0 -178 3 -227 22 -320 66 -333 214 -580 431
-720 156 -101 237 -110 275 -31 26 55 88 318 81 345 -4 14 -33 61 -66 105 -75
99 -122 197 -151 311 -29 118 -31 361 -4 505 109 568 516 989 1075 1110 316
69 670 41 940 -74 333 -143 551 -426 616 -800 20 -115 20 -351 -1 -526 -85
-743 -454 -1251 -909 -1250 -245 0 -434 149 -476 375 -19 104 -6 166 124 600
130 432 156 567 136 714 -34 248 -223 393 -460 353 -258 -44 -448 -292 -489
-637 -19 -156 7 -378 61 -520 10 -27 19 -59 19 -69 0 -11 -84 -373 -186 -805
-102 -432 -194 -833 -205 -891 -44 -239 -45 -598 -4 -914 23 -175 42 -179 154
-27 205 277 365 569 440 801 11 36 67 246 124 468 l103 403 29 -41 c82 -118
285 -247 460 -291 215 -54 517 -26 761 71 180 72 325 170 480 324 159 160 284
346 374 560 139 327 194 610 194 996 0 206 -2 247 -22 337 -69 316 -210 583
-427 811 -404 424 -983 620 -1654 561z"/>
</g>
</svg>
